<?xml version="1.0" encoding="utf-8"?>
<!-- Generator: Adobe Illustrator 23.0.3, SVG Export Plug-In . SVG Version: 6.00 Build 0)  -->
<svg version="1.1" id="圖層_1" xmlns="http://www.w3.org/2000/svg" xmlns:xlink="http://www.w3.org/1999/xlink" x="0px" y="0px"
	 viewBox="0 0 16 16" style="enable-background:new 0 0 16 16;" xml:space="preserve">
<style type="text/css">
	.st0{fill:#E3A576;}
</style>
<path class="st0" d="M15.7,3c0-1.1-0.9-2-2-2H6.6C6,1,5.5,1.3,5.1,1.7L0.2,7.3c-0.3,0.4-0.3,0.9,0,1.3l4.8,5.6C5.5,14.7,6,15,6.6,15
	h7.1c1.1,0,2-0.9,2-2C15.7,13,15.7,3,15.7,3z M5.8,5.9c-0.2-0.2-0.2-0.5,0-0.7C6,5,6.3,5,6.5,5.1l2.1,2.1l2.1-2.1
	C11,5,11.3,5,11.5,5.1c0.2,0.2,0.2,0.5,0,0.7L9.4,8l2.1,2.1c0.2,0.2,0.2,0.5,0,0.7c-0.2,0.2-0.5,0.2-0.7,0L8.7,8.7l-2.1,2.1
	C6.3,11,6,11,5.8,10.9c-0.2-0.2-0.2-0.5,0-0.7l0,0L8,8L5.8,5.9z"/>
</svg>
