<?xml version="1.0" encoding="utf-8"?>
<!-- Generator: Adobe Illustrator 23.0.3, SVG Export Plug-In . SVG Version: 6.00 Build 0)  -->
<svg version="1.1" id="圖層_1" xmlns="http://www.w3.org/2000/svg" xmlns:xlink="http://www.w3.org/1999/xlink" x="0px" y="0px"
	 viewBox="0 0 16 16" style="enable-background:new 0 0 16 16;" xml:space="preserve">
<style type="text/css">
	.st0{fill:#E3A576;}
</style>
<path class="st0" d="M13.5,1C12.7,1,12,1.7,12,2.5S12.7,4,13.5,4S15,3.3,15,2.5S14.3,1,13.5,1z M11,2.5C11,1.1,12.1,0,13.5,0
	S16,1.1,16,2.5C16,3.9,14.9,5,13.5,5c-0.7,0-1.4-0.3-1.9-0.9L4.9,7.2c0.2,0.5,0.2,1,0,1.5l6.7,3.1c0.9-1,2.5-1.2,3.5-0.3
	s1.2,2.5,0.3,3.5s-2.5,1.2-3.5,0.3c-0.8-0.7-1.1-1.7-0.8-2.6L4.4,9.6c-0.9,1-2.5,1.2-3.5,0.3s-1.2-2.5-0.3-3.5s2.5-1.2,3.5-0.3
	c0.1,0.1,0.2,0.2,0.3,0.3l6.7-3.1C11,3,11,2.8,11,2.5z M2.5,6.5C1.7,6.5,1,7.2,1,8s0.7,1.5,1.5,1.5S4,8.8,4,8S3.3,6.5,2.5,6.5z
	 M13.5,12c-0.8,0-1.5,0.7-1.5,1.5s0.7,1.5,1.5,1.5s1.5-0.7,1.5-1.5S14.3,12,13.5,12z"/>
</svg>
