<?xml version="1.0" standalone="no"?>
<!DOCTYPE svg PUBLIC "-//W3C//DTD SVG 20010904//EN"
 "http://www.w3.org/TR/2001/REC-SVG-20010904/DTD/svg10.dtd">
<svg version="1.0" xmlns="http://www.w3.org/2000/svg"
 width="700.000000pt" height="700.000000pt" viewBox="0 0 700.000000 700.000000"
 preserveAspectRatio="xMidYMid meet">
<metadata>
Created by potrace 1.14, written by Peter Selinger 2001-2017
</metadata>
<g transform="translate(0.000000,700.000000) scale(0.100000,-0.100000)"
fill="#000000" stroke="none">
<path d="M1635 6993 c-104 -21 -171 -41 -230 -66 -255 -112 -440 -332 -507
-604 l-21 -88 -1 -2710 c0 -1490 3 -2735 7 -2765 43 -321 261 -591 572 -708
22 -8 76 -23 120 -32 75 -17 187 -18 1920 -19 1524 0 1852 2 1910 14 363 71
625 332 706 702 19 86 21 5420 2 5541 -49 311 -245 556 -545 680 -151 63 -55
60 -2073 60 -1012 0 -1849 -2 -1860 -5z m3250 -1754 c109 -27 175 -171 133
-290 -18 -53 -75 -107 -128 -123 -69 -21 -2701 -21 -2775 -1 -119 33 -180 179
-126 301 24 54 50 79 106 105 38 18 98 19 1393 19 948 0 1366 -3 1397 -11z
m31 -887 c75 -39 114 -105 114 -196 0 -97 -59 -184 -142 -207 -62 -17 -2714
-17 -2776 0 -108 30 -167 157 -131 285 15 55 84 120 139 132 27 5 593 9 1400
8 l1355 0 41 -22z m16 -884 c87 -52 124 -184 79 -284 -23 -51 -81 -99 -135
-112 -26 -6 -528 -10 -1381 -10 -1095 1 -1348 3 -1386 14 -56 17 -113 75 -128
131 -36 128 22 248 137 283 15 5 644 8 1397 7 l1370 -2 47 -27z m-1362 -852
c48 -12 88 -44 118 -96 22 -37 27 -57 27 -115 -1 -94 -31 -149 -105 -189 l-51
-28 -712 1 c-638 0 -717 2 -752 17 -85 35 -133 124 -122 227 10 94 60 155 146
181 46 13 1393 15 1451 2z"/>
</g>
</svg>
