<?xml version="1.0" encoding="utf-8"?>
<!-- Generator: Adobe Illustrator 23.0.3, SVG Export Plug-In . SVG Version: 6.00 Build 0)  -->
<svg version="1.1" id="圖層_1" xmlns="http://www.w3.org/2000/svg" xmlns:xlink="http://www.w3.org/1999/xlink" x="0px" y="0px"
	 viewBox="0 0 16 16" style="enable-background:new 0 0 16 16;" xml:space="preserve">
<style type="text/css">
	.st0{fill:#968A96;}
</style>
<path class="st0" d="M12,0H4C2.9,0,2,0.9,2,2v12c0,1.1,0.9,2,2,2h8c1.1,0,2-0.9,2-2V2C14,0.9,13.1,0,12,0z M5,4h6
	c0.3,0,0.5,0.2,0.5,0.5S11.3,5,11,5H5C4.7,5,4.5,4.8,4.5,4.5S4.7,4,5,4z M4.5,6.5C4.5,6.2,4.7,6,5,6h6c0.3,0,0.5,0.2,0.5,0.5
	S11.3,7,11,7H5C4.7,7,4.5,6.8,4.5,6.5z M5,8h6c0.3,0,0.5,0.2,0.5,0.5S11.3,9,11,9H5C4.7,9,4.5,8.8,4.5,8.5S4.7,8,5,8z M5,10h3
	c0.3,0,0.5,0.2,0.5,0.5S8.3,11,8,11H5c-0.3,0-0.5-0.2-0.5-0.5S4.7,10,5,10z"/>
</svg>
