<?xml version="1.0" encoding="utf-8"?>
<!-- Generator: Adobe Illustrator 23.0.3, SVG Export Plug-In . SVG Version: 6.00 Build 0)  -->
<svg version="1.1" id="圖層_1" xmlns="http://www.w3.org/2000/svg" xmlns:xlink="http://www.w3.org/1999/xlink" x="0px" y="0px"
	 viewBox="0 0 16 16" style="enable-background:new 0 0 16 16;" xml:space="preserve">
<style type="text/css">
	.st0{fill:#E3A576;}
</style>
<path class="st0" d="M6.5,14.5V11c0-0.2,0.3-0.5,0.5-0.5h2c0.3,0,0.5,0.3,0.5,0.5v3.5c0,0.3,0.2,0.5,0.5,0.5h4
	c0.3,0,0.5-0.2,0.5-0.5v-7c0-0.1-0.1-0.3-0.1-0.4L13,5.8V2.5C13,2.2,12.8,2,12.5,2h-1C11.2,2,11,2.2,11,2.5v1.3L8.4,1.1
	C8.2,1,7.8,1,7.6,1.1c0,0,0,0,0,0l-6,6C1.6,7.2,1.5,7.4,1.5,7.5v7C1.5,14.8,1.7,15,2,15h4C6.3,15,6.5,14.8,6.5,14.5z"/>
</svg>
