<?xml version="1.0" encoding="utf-8"?>
<!-- Generator: Adobe Illustrator 23.0.3, SVG Export Plug-In . SVG Version: 6.00 Build 0)  -->
<svg version="1.1" id="圖層_1" xmlns="http://www.w3.org/2000/svg" xmlns:xlink="http://www.w3.org/1999/xlink" x="0px" y="0px"
	 viewBox="0 0 16 16" style="enable-background:new 0 0 16 16;" xml:space="preserve">
<style type="text/css">
	.st0{fill:#E3A576;}
	.st1{fill:#B5424F;}
</style>
<path class="st0" d="M9,8.5h2.8l0.9,0.9c0.1,0.1,0.2,0.1,0.4,0.1h1c0.3,0,0.5-0.2,0.5-0.5V8c0-0.3-0.2-0.5-0.5-0.5H9V8.5z"/>
<path class="st1" d="M12,3H4C1.8,3,0,4.8,0,7v6c0,0.6,0.4,1,1,1h14c0.6,0,1-0.4,1-1V7C16,4.8,14.2,3,12,3z M8,7c0-1.1-0.5-2.2-1.4-3
	H12c1.7,0,3,1.3,3,3v6H8V7z M4.6,7.2C4.4,7.1,4.2,7,4,7S3.6,7.1,3.4,7.2C3.2,7.3,3,7.3,3,7c0-0.6,0.4-1,1-1s1,0.4,1,1
	C5,7.3,4.8,7.3,4.6,7.2z"/>
</svg>
