<?xml version="1.0" encoding="utf-8"?>
<!-- Generator: Adobe Illustrator 23.0.3, SVG Export Plug-In . SVG Version: 6.00 Build 0)  -->
<svg version="1.1" id="圖層_1" xmlns="http://www.w3.org/2000/svg" xmlns:xlink="http://www.w3.org/1999/xlink" x="0px" y="0px"
	 viewBox="0 0 16 16" style="enable-background:new 0 0 16 16;" xml:space="preserve">
<style type="text/css">
	.st0{fill:#E3A576;}
</style>
<path class="st0" d="M0.5,9.9c0.3,0,0.5,0.2,0.5,0.5v2.5c0,0.6,0.4,1,1,1h12c0.6,0,1-0.4,1-1v-2.5c0-0.3,0.2-0.5,0.5-0.5
	s0.5,0.2,0.5,0.5v2.5c0,1.1-0.9,2-2,2H2c-1.1,0-2-0.9-2-2v-2.5C0,10.1,0.2,9.9,0.5,9.9z"/>
<path class="st0" d="M7.6,1.1C7.8,1,8.2,1,8.4,1.1c0,0,0,0,0,0l3,3c0.2,0.2,0.2,0.5,0,0.7s-0.5,0.2-0.7,0L8.5,2.7v8.8
	C8.5,11.8,8.3,12,8,12c-0.3,0-0.5-0.2-0.5-0.5V2.7L5.4,4.9C5.2,5,4.8,5,4.6,4.9s-0.2-0.5,0-0.7C4.6,4.1,7.6,1.1,7.6,1.1z"/>
</svg>
